{
  "accessors": [
    {
      "bufferView": 2,
      "componentType": 5126,
      "count": 336,
      "max": [
        1.0934468507766724,
        0.65738201141357422,
        1.1707520484924316
      ],
      "min": [
        -1.0934468507766724,
        -0.67858421802520752,
        0
      ],
      "type": "VEC3"
    },
    {
      "bufferView": 2,
      "byteOffset": 4032,
      "componentType": 5126,
      "count": 336,
      "max": [
        0.99999535083770752,
        0.99966686964035034,
        0.99851065874099731
      ],
      "min": [
        -0.99999535083770752,
        -0.99966686964035034,
        -1
      ],
      "type": "VEC3"
    },
    {
      "bufferView": 3,
      "componentType": 5126,
      "count": 336,
      "max": [
        1,
        1,
        0.284950852394104,
        1
      ],
      "min": [
        -1,
        -1,
        -0.42753544449806213,
        -1
      ],
      "type": "VEC4"
    },
    {
      "bufferView": 1,
      "componentType": 5126,
      "count": 336,
      "max": [
        0.98603540658950806,
        0.9915814995765686
      ],
      "min": [
        0.019647860899567604,
        0.021298497915267944
      ],
      "type": "VEC2"
    },
    {
      "bufferView": 0,
      "componentType": 5125,
      "count": 768,
      "max": [
        335
      ],
      "min": [
        0
      ],
      "type": "SCALAR"
    },
    {
      "bufferView": 2,
      "byteOffset": 8064,
      "componentType": 5126,
      "count": 32,
      "max": [
        0.98897933959960938,
        0.56669247150421143,
        0.89034658670425415
      ],
      "min": [
        -0.98897933959960938,
        -0.56669247150421143,
        0.14568299055099487
      ],
      "type": "VEC3"
    },
    {
      "bufferView": 2,
      "byteOffset": 8448,
      "componentType": 5126,
      "count": 32,
      "max": [
        0.9999459981918335,
        0.99965554475784302,
        0.16997320950031281
      ],
      "min": [
        -0.9999459981918335,
        -0.99965554475784302,
        -0.026245821267366409
      ],
      "type": "VEC3"
    },
    {
      "bufferView": 3,
      "byteOffset": 5376,
      "componentType": 5126,
      "count": 32,
      "max": [
        1,
        1,
        4.5975681928211998e-07,
        1
      ],
      "min": [
        -1,
        -1,
        -2.5867976205518062e-07,
        1
      ],
      "type": "VEC4"
    },
    {
      "bufferView": 1,
      "byteOffset": 2688,
      "componentType": 5126,
      "count": 32,
      "max": [
        0.86540877819061279,
        0.62999612092971802
      ],
      "min": [
        0.094814762473106384,
        0.3874986469745636
      ],
      "type": "VEC2"
    },
    {
      "bufferView": 0,
      "byteOffset": 3072,
      "componentType": 5125,
      "count": 48,
      "max": [
        31
      ],
      "min": [
        0
      ],
      "type": "SCALAR"
    },
    {
      "bufferView": 2,
      "byteOffset": 8832,
      "componentType": 5126,
      "count": 1321,
      "max": [
        1.0000001192092896,
        0.59819406270980835,
        1.6239013671875
      ],
      "min": [
        -1.0000001192092896,
        -0.59819406270980835,
        1.0257073640823364
      ],
      "type": "VEC3"
    },
    {
      "bufferView": 2,
      "byteOffset": 24684,
      "componentType": 5126,
      "count": 1321,
      "max": [
        1,
        0.98768848180770874,
        1
      ],
      "min": [
        -1,
        -0.98768854141235352,
        -0.98768860101699829
      ],
      "type": "VEC3"
    },
    {
      "bufferView": 3,
      "byteOffset": 5888,
      "componentType": 5126,
      "count": 1321,
      "max": [
        1,
        1,
        0.29811063408851624,
        1
      ],
      "min": [
        -1,
        -1,
        -0.29794007539749146,
        1
      ],
      "type": "VEC4"
    },
    {
      "bufferView": 1,
      "byteOffset": 2944,
      "componentType": 5126,
      "count": 1321,
      "max": [
        0.97387701272964478,
        0.84060072898864746
      ],
      "min": [
        0.035054732114076614,
        0.20949678122997284
      ],
      "type": "VEC2"
    },
    {
      "bufferView": 0,
      "byteOffset": 3264,
      "componentType": 5125,
      "count": 2400,
      "max": [
        1320
      ],
      "min": [
        0
      ],
      "type": "SCALAR"
    },
    {
      "bufferView": 2,
      "byteOffset": 40536,
      "componentType": 5126,
      "count": 665,
      "max": [
        0.94440662860870361,
        0.52479755878448486,
        1.5743856430053711
      ],
      "min": [
        -0.94440662860870361,
        -0.52479743957519531,
        1.1257073879241943
      ],
      "type": "VEC3"
    },
    {
      "bufferView": 2,
      "byteOffset": 48516,
      "componentType": 5126,
      "count": 665,
      "max": [
        1,
        0.86387431621551514,
        0.98768889904022217
      ],
      "min": [
        -1,
        -0.86387419700622559,
        -1.8339679286327737e-07
      ],
      "type": "VEC3"
    },
    {
      "bufferView": 3,
      "byteOffset": 27024,
      "componentType": 5126,
      "count": 665,
      "max": [
        1,
        1,
        0.17623654007911682,
        1
      ],
      "min": [
        -4.4964045287088084e-07,
        -1,
        -0.176234170794487,
        1
      ],
      "type": "VEC4"
    },
    {
      "bufferView": 1,
      "byteOffset": 13512,
      "componentType": 5126,
      "count": 665,
      "max": [
        0.8763277530670166,
        0.62248802185058594
      ],
      "min": [
        0.15157128870487213,
        0.21278037130832672
      ],
      "type": "VEC2"
    },
    {
      "bufferView": 0,
      "byteOffset": 12864,
      "componentType": 5125,
      "count": 1080,
      "max": [
        664
      ],
      "min": [
        0
      ],
      "type": "SCALAR"
    }
  ],
  "asset": {
    "extras": {
      "author": "Agustín Hönnun (https://sketchfab.com/Agustin_Honnun)",
      "license": "CC-BY-4.0 (http://creativecommons.org/licenses/by/4.0/)",
      "source": "https://sketchfab.com/3d-models/handpainted-chest-free-agustin-honnun-98d17fb637e7466b9dc6f9ffacf3c338",
      "title": "HandPainted Chest [FREE] | Agustin Honnun"
    },
    "generator": "Sketchfab-7.48.0",
    "version": "2.0"
  },
  "bufferViews": [
    {
      "buffer": 0,
      "byteLength": 17184,
      "byteOffset": 0,
      "name": "floatBufferViews",
      "target": 34963
    },
    {
      "buffer": 0,
      "byteLength": 18832,
      "byteOffset": 17184,
      "byteStride": 8,
      "name": "floatBufferViews",
      "target": 34962
    },
    {
      "buffer": 0,
      "byteLength": 56496,
      "byteOffset": 36016,
      "byteStride": 12,
      "name": "floatBufferViews",
      "target": 34962
    },
    {
      "buffer": 0,
      "byteLength": 37664,
      "byteOffset": 92512,
      "byteStride": 16,
      "name": "floatBufferViews",
      "target": 34962
    }
  ],
  "buffers": [
    {
      "byteLength": 130176,
      "uri": "scene.bin"
    }
  ],
  "images": [
    {
      "uri": "textures/MetalCofre_baseColor.png"
    },
    {
      "uri": "textures/MetalCofre_metallicRoughness.png"
    },
    {
      "uri": "textures/MetalCofre_normal.png"
    },
    {
      "uri": "textures/Metal_baseColor.png"
    },
    {
      "uri": "textures/Metal_metallicRoughness.png"
    },
    {
      "uri": "textures/Metal_normal.png"
    }
  ],
  "materials": [
    {
      "doubleSided": true,
      "emissiveFactor": [
        0,
        0,
        0
      ],
      "name": "MetalCofre",
      "normalTexture": {
        "index": 2,
        "scale": 0.59317835365853655,
        "texCoord": 0
      },
      "occlusionTexture": {
        "index": 1,
        "strength": 1,
        "texCoord": 0
      },
      "pbrMetallicRoughness": {
        "baseColorFactor": [
          1,
          1,
          1,
          1
        ],
        "baseColorTexture": {
          "index": 0,
          "texCoord": 0
        },
        "metallicFactor": 0.44683689024390244,
        "metallicRoughnessTexture": {
          "index": 1,
          "texCoord": 0
        },
        "roughnessFactor": 0.19073932926829268
      }
    },
    {
      "doubleSided": true,
      "emissiveFactor": [
        0,
        0,
        0
      ],
      "name": "Material",
      "normalTexture": {
        "index": 2,
        "scale": 1,
        "texCoord": 0
      },
      "occlusionTexture": {
        "index": 1,
        "strength": 1,
        "texCoord": 0
      },
      "pbrMetallicRoughness": {
        "baseColorFactor": [
          1,
          1,
          1,
          1
        ],
        "baseColorTexture": {
          "index": 0,
          "texCoord": 0
        },
        "metallicFactor": 0,
        "metallicRoughnessTexture": {
          "index": 1,
          "texCoord": 0
        },
        "roughnessFactor": 0.30316310975609762
      }
    },
    {
      "doubleSided": true,
      "emissiveFactor": [
        0,
        0,
        0
      ],
      "name": "Metal",
      "normalTexture": {
        "index": 5,
        "scale": 0.72122713414634143,
        "texCoord": 0
      },
      "occlusionTexture": {
        "index": 4,
        "strength": 0.78220274390243905,
        "texCoord": 0
      },
      "pbrMetallicRoughness": {
        "baseColorFactor": [
          1,
          1,
          1,
          1
        ],
        "baseColorTexture": {
          "index": 3,
          "texCoord": 0
        },
        "metallicFactor": 0.44700000000000001,
        "metallicRoughnessTexture": {
          "index": 4,
          "texCoord": 0
        },
        "roughnessFactor": 0.191
      }
    },
    {
      "doubleSided": true,
      "emissiveFactor": [
        0,
        0,
        0
      ],
      "name": "Tapa_Diffuse",
      "normalTexture": {
        "index": 5,
        "scale": 1,
        "texCoord": 0
      },
      "occlusionTexture": {
        "index": 4,
        "strength": 1,
        "texCoord": 0
      },
      "pbrMetallicRoughness": {
        "baseColorFactor": [
          1,
          1,
          1,
          1
        ],
        "baseColorTexture": {
          "index": 3,
          "texCoord": 0
        },
        "metallicFactor": 0,
        "metallicRoughnessTexture": {
          "index": 4,
          "texCoord": 0
        },
        "roughnessFactor": 0.54706554878048785
      }
    }
  ],
  "meshes": [
    {
      "name": "Cofre_MetalCofre_0",
      "primitives": [
        {
          "attributes": {
            "NORMAL": 1,
            "POSITION": 0,
            "TANGENT": 2,
            "TEXCOORD_0": 3
          },
          "indices": 4,
          "material": 0,
          "mode": 4
        }
      ]
    },
    {
      "name": "Cofre_Material_0",
      "primitives": [
        {
          "attributes": {
            "NORMAL": 6,
            "POSITION": 5,
            "TANGENT": 7,
            "TEXCOORD_0": 8
          },
          "indices": 9,
          "material": 1,
          "mode": 4
        }
      ]
    },
    {
      "name": "Tapa_Metal_0",
      "primitives": [
        {
          "attributes": {
            "NORMAL": 11,
            "POSITION": 10,
            "TANGENT": 12,
            "TEXCOORD_0": 13
          },
          "indices": 14,
          "material": 2,
          "mode": 4
        }
      ]
    },
    {
      "name": "Tapa_Tapa_Diffuse_0",
      "primitives": [
        {
          "attributes": {
            "NORMAL": 16,
            "POSITION": 15,
            "TANGENT": 17,
            "TEXCOORD_0": 18
          },
          "indices": 19,
          "material": 3,
          "mode": 4
        }
      ]
    }
  ],
  "nodes": [
    {
      "children": [
        1
      ],
      "name": "RootNode (gltf orientation matrix)",
      "rotation": [
        -0.70710678118654746,
        -0,
        -0,
        0.70710678118654757
      ]
    },
    {
      "children": [
        2
      ],
      "name": "RootNode (model correction matrix)"
    },
    {
      "children": [
        3
      ],
      "matrix": [
        1,
        0,
        0,
        0,
        0,
        0,
        1,
        0,
        0,
        -1,
        0,
        0,
        0,
        0,
        0,
        1
      ],
      "name": "0da4aeb9bbc744b296266a76244b7f48.fbx"
    },
    {
      "children": [
        4,
        7
      ],
      "name": "RootNode"
    },
    {
      "children": [
        5,
        6
      ],
      "matrix": [
        100,
        0,
        0,
        0,
        0,
        -1.6292067939183141e-05,
        -99.999999999998678,
        0,
        0,
        99.999999999998678,
        -1.6292067939183141e-05,
        0,
        0,
        0,
        0,
        1
      ],
      "name": "Cofre"
    },
    {
      "mesh": 0,
      "name": "Cofre_MetalCofre_0"
    },
    {
      "mesh": 1,
      "name": "Cofre_Material_0"
    },
    {
      "children": [
        8,
        9
      ],
      "matrix": [
        100,
        0,
        0,
        0,
        0,
        -1.6292067939183141e-05,
        -99.999999999998678,
        0,
        0,
        99.999999999998678,
        -1.6292067939183141e-05,
        0,
        0,
        0,
        0,
        1
      ],
      "name": "Tapa"
    },
    {
      "mesh": 2,
      "name": "Tapa_Metal_0"
    },
    {
      "mesh": 3,
      "name": "Tapa_Tapa_Diffuse_0"
    }
  ],
  "samplers": [
    {
      "magFilter": 9729,
      "minFilter": 9987,
      "wrapS": 10497,
      "wrapT": 10497
    }
  ],
  "scene": 0,
  "scenes": [
    {
      "name": "OSG_Scene",
      "nodes": [
        0
      ]
    }
  ],
  "textures": [
    {
      "sampler": 0,
      "source": 0
    },
    {
      "sampler": 0,
      "source": 1
    },
    {
      "sampler": 0,
      "source": 2
    },
    {
      "sampler": 0,
      "source": 3
    },
    {
      "sampler": 0,
      "source": 4
    },
    {
      "sampler": 0,
      "source": 5
    }
  ]
}

